<?xml version="1.0" encoding="UTF-8" standalone="no"?>
<svg
   xmlns:dc="http://purl.org/dc/elements/1.1/"
   xmlns:cc="http://creativecommons.org/ns#"
   xmlns:rdf="http://www.w3.org/1999/02/22-rdf-syntax-ns#"
   xmlns:svg="http://www.w3.org/2000/svg"
   xmlns="http://www.w3.org/2000/svg"
   xmlns:sodipodi="http://sodipodi.sourceforge.net/DTD/sodipodi-0.dtd"
   xmlns:inkscape="http://www.inkscape.org/namespaces/inkscape"
   version="1.1"
   viewBox="0 0 132 132"
   stroke-miterlimit="10"
   id="svg2"
   inkscape:version="0.48.4 r9939"
   width="100%"
   height="100%"
   sodipodi:docname="forkdone-logo-dark.svg"
   style="fill:none;stroke:none">
  <metadata
     id="metadata39">
    <rdf:RDF>
      <cc:Work
         rdf:about="">
        <dc:format>image/svg+xml</dc:format>
        <dc:type
           rdf:resource="http://purl.org/dc/dcmitype/StillImage" />
        <dc:title></dc:title>
      </cc:Work>
    </rdf:RDF>
  </metadata>
  <defs
     id="defs37" />
  <sodipodi:namedview
     pagecolor="#ffffff"
     bordercolor="#666666"
     borderopacity="1"
     objecttolerance="10"
     gridtolerance="10"
     guidetolerance="10"
     inkscape:pageopacity="0"
     inkscape:pageshadow="2"
     inkscape:window-width="1855"
     inkscape:window-height="1056"
     id="namedview35"
     showgrid="false"
     inkscape:zoom="5.095487"
     inkscape:cx="97.457062"
     inkscape:cy="53.804182"
     inkscape:window-x="1985"
     inkscape:window-y="24"
     inkscape:window-maximized="1"
     inkscape:current-layer="svg2" />
  <clipPath
     id="p.0">
    <path
       d="M 0,0 131,0 131,129 0,129 0,0 z"
       clip-rule="nonzero"
       id="path5"
       inkscape:connector-curvature="0" />
  </clipPath>
  <g
     clip-path="url(#p.0)"
     id="g7"
     transform="matrix(1.0076336,0,0,1.0232558,0,1.8e-6)">
    <path
       d="m 0,0 131.0315,0 0,129.83464 -131.0315,0 z"
       id="path9"
       inkscape:connector-curvature="0"
       style="fill:#000000;fill-opacity:0;fill-rule:nonzero" />
    <path
       d="m 6.1149883,6.0524864 118.8031517,0 0,117.7322836 -118.8031517,0 z"
       id="path11"
       inkscape:connector-curvature="0"
       style="fill:#000000;fill-rule:nonzero" />
    <path
       d="m 6.1149883,6.0524864 118.8031517,0 0,117.7322836 -118.8031517,0 z"
       id="path13"
       inkscape:connector-curvature="0"
       style="stroke:#000000;stroke-width:12;stroke-linecap:butt;stroke-linejoin:round" />
    <path
       d="m 27.577099,69.18301 38.488194,35.30708"
       id="path15"
       inkscape:connector-curvature="0"
       style="fill:#000000;fill-opacity:0;fill-rule:nonzero" />
    <path
       d="m 27.577099,69.18301 38.488194,35.30708"
       id="path17"
       inkscape:connector-curvature="0"
       style="stroke:#ffffff;stroke-width:12;stroke-linecap:butt;stroke-linejoin:round" />
    <path
       d="M 64.44942,104.52248 103.18958,27.955559"
       id="path19"
       inkscape:connector-curvature="0"
       style="fill:#000000;fill-opacity:0;fill-rule:nonzero" />
    <path
       d="M 64.44942,104.52248 103.18958,27.955559"
       id="path21"
       inkscape:connector-curvature="0"
       style="stroke:#ffffff;stroke-width:12;stroke-linecap:butt;stroke-linejoin:round" />
    <path
       d="m 52.262768,102.78954 0,0 c 0,-7.262329 5.936634,-13.149605 13.259846,-13.149605 l 0,0 c 3.516724,0 6.88942,1.385399 9.376121,3.851433 2.486702,2.466026 3.883721,5.810684 3.883721,9.298172 l 0,0 c 0,7.26233 -5.936638,13.1496 -13.259842,13.1496 l 0,0 c -7.323212,0 -13.259846,-5.88727 -13.259846,-13.1496 z"
       id="path23"
       inkscape:connector-curvature="0"
       style="fill:#ffffff;fill-rule:nonzero" />
    <path
       d="m 52.262768,102.78954 0,0 c 0,-7.262329 5.936634,-13.149605 13.259846,-13.149605 l 0,0 c 3.516724,0 6.88942,1.385399 9.376121,3.851433 2.486702,2.466026 3.883721,5.810684 3.883721,9.298172 l 0,0 c 0,7.26233 -5.936638,13.1496 -13.259842,13.1496 l 0,0 c -7.323212,0 -13.259846,-5.88727 -13.259846,-13.1496 z"
       id="path25"
       inkscape:connector-curvature="0"
       style="stroke:#000000;stroke-width:2;stroke-linecap:butt;stroke-linejoin:round" />
    <path
       d="m 89.951546,27.551674 0,0 c 0,-7.262327 5.936638,-13.149607 13.259844,-13.149607 l 0,0 c 3.51673,0 6.88942,1.385401 9.37613,3.851431 2.4867,2.466028 3.88371,5.810682 3.88371,9.298176 l 0,0 c 0,7.262325 -5.93663,13.149605 -13.25984,13.149605 l 0,0 c -7.323206,0 -13.259844,-5.887279 -13.259844,-13.149605 z"
       id="path27"
       inkscape:connector-curvature="0"
       style="fill:#ffffff;fill-rule:nonzero" />
    <path
       d="m 89.951546,27.551674 0,0 c 0,-7.262327 5.936638,-13.149607 13.259844,-13.149607 l 0,0 c 3.51673,0 6.88942,1.385401 9.37613,3.851431 2.4867,2.466028 3.88371,5.810682 3.88371,9.298176 l 0,0 c 0,7.262325 -5.93663,13.149605 -13.25984,13.149605 l 0,0 c -7.323206,0 -13.259844,-5.887279 -13.259844,-13.149605 z"
       id="path29"
       inkscape:connector-curvature="0"
       style="stroke:#000000;stroke-width:2;stroke-linecap:butt;stroke-linejoin:round" />
    <path
       d="m 14.743418,69.397026 0,0 c 0,-7.262329 5.936634,-13.149609 13.259842,-13.149609 l 0,0 c 3.516729,0 6.889422,1.385399 9.376123,3.851429 2.486706,2.46603 3.88372,5.810684 3.88372,9.29818 l 0,0 c 0,7.262321 -5.936634,13.149605 -13.259844,13.149605 l 0,0 c -7.323208,0 -13.259842,-5.887283 -13.259842,-13.149605 z"
       id="path31"
       inkscape:connector-curvature="0"
       style="fill:#ffffff;fill-rule:nonzero" />
    <path
       d="m 14.743418,69.397026 0,0 c 0,-7.262329 5.936634,-13.149609 13.259842,-13.149609 l 0,0 c 3.516729,0 6.889422,1.385399 9.376123,3.851429 2.486706,2.46603 3.88372,5.810684 3.88372,9.29818 l 0,0 c 0,7.262321 -5.936634,13.149605 -13.259844,13.149605 l 0,0 c -7.323208,0 -13.259842,-5.887283 -13.259842,-13.149605 z"
       id="path33"
       inkscape:connector-curvature="0"
       style="stroke:#000000;stroke-width:2;stroke-linecap:butt;stroke-linejoin:round" />
  </g>
</svg>
